# Blender v3.3.0 OBJ File: 'badminton_arena.blend'
# www.blender.org
mtllib score_panel.mtl
o Cube.002
v -17.592459 -8.353421 0.635003
v -17.592459 8.353421 0.635003
v -19.239038 -10.000000 -1.783597
v -19.239038 10.000000 -1.783597
v 17.592459 -8.353421 0.635003
v 17.592459 8.353421 0.635003
v 19.239038 -10.000000 -1.783597
v 19.239038 10.000000 -1.783597
v -19.239038 -10.000000 1.783597
v -19.239038 10.000000 1.783597
v 19.239038 10.000000 1.783597
v 19.239038 -10.000000 1.783597
vt 0.395582 0.760698
vt 0.604418 0.760698
vt 0.604418 0.989302
vt 0.395582 0.989302
vt 0.375000 0.000000
vt 0.625000 0.000000
vt 0.625000 0.250000
vt 0.375000 0.250000
vt 0.625000 0.500000
vt 0.375000 0.500000
vt 0.625000 0.750000
vt 0.375000 0.750000
vt 0.125000 0.500000
vt 0.125000 0.750000
vt 0.875000 0.500000
vt 0.875000 0.750000
vt 0.625000 1.000000
vt 0.375000 1.000000
vn 0.0000 0.0000 1.0000
vn -1.0000 0.0000 0.0000
vn 0.0000 0.0000 -1.0000
vn 1.0000 0.0000 0.0000
vn 0.0000 -1.0000 0.0000
vn 0.0000 1.0000 0.0000
vn 0.5721 0.0000 0.8202
vn -0.5721 0.0000 0.8202
vn 0.0000 0.5721 0.8202
vn 0.0000 -0.5721 0.8202
usemtl Material.006
s off
f 5/1/1 6/2/1 2/3/1 1/4/1
usemtl Material.007
f 9/5/2 10/6/2 4/7/2 3/8/2
f 3/8/3 4/7/3 8/9/3 7/10/3
f 7/10/4 8/9/4 11/11/4 12/12/4
f 3/13/5 7/10/5 12/12/5 9/14/5
f 8/9/6 4/15/6 10/16/6 11/11/6
f 1/4/7 2/3/7 10/17/7 9/18/7
f 6/2/8 5/1/8 12/12/8 11/11/8
f 5/1/9 1/4/9 9/18/9 12/12/9
f 2/3/10 6/2/10 11/11/10 10/17/10
